PathFileType	4	(X/Y/Z)	 2.6Hz3min.trc
DataRate	CameraRate	NumFrames	NumMarkers	Units	OrigDataRate	OrigDataStartFrame	OrigNumFrames
200	200	10	39	m	200	376	1000
Frame#	Time	C7			LSH			RSH			MAN			RASI			LASI			HIPR			HIPL			RPSI			LPSI			COX			RTHI1			RTHI2			RTHI3			RTHI4			RLKN			RMKN			RSHA1			RSHA2			RSHA3			RSHA4			RHEEL			RMET5			RMET1			RTOE			LTHI1			LTHI2			LTHI3			LTHI4			LLKN			LMKN			LSHA1			LSHA2			LSHA3			LSHA4			LHEEL			LMET5			LMET1			LTOE			
		X1	Y1	Z1	X2	Y2	Z2	X3	Y3	Z3	X4	Y4	Z4	X5	Y5	Z5	X6	Y6	Z6	X7	Y7	Z7	X8	Y8	Z8	X9	Y9	Z9	X10	Y10	Z10	X11	Y11	Z11	X12	Y12	Z12	X13	Y13	Z13	X14	Y14	Z14	X15	Y15	Z15	X16	Y16	Z16	X17	Y17	Z17	X18	Y18	Z18	X19	Y19	Z19	X20	Y20	Z20	X21	Y21	Z21	X22	Y22	Z22	X23	Y23	Z23	X24	Y24	Z24	X25	Y25	Z25	X26	Y26	Z26	X27	Y27	Z27	X28	Y28	Z28	X29	Y29	Z29	X30	Y30	Z30	X31	Y31	Z31	X32	Y32	Z32	X33	Y33	Z33	X34	Y34	Z34	X35	Y35	Z35	X36	Y36	Z36	X37	Y37	Z37	X38	Y38	Z38	X39	Y39	Z39	
376	1.8800	-0.305652	1.552109	-0.551028	-0.246575	1.544060	-0.724920	-0.274040	1.551256	-0.369300	-0.158500	1.499150	-0.548514	-0.177125	1.039783	-0.421225	-0.180282	1.035622	-0.659632	-0.252100	1.115177	-0.376042	-0.247556	1.103569	-0.703975	-0.349283	1.101932	-0.495068	-0.350833	1.104771	-0.583650	-0.349033	1.106465	-0.536579	-0.263718	0.853044	-0.345227	-0.251885	0.794793	-0.339876	-0.187796	0.805964	-0.334921	-0.192445	0.867415	-0.341772	-0.230625	0.527436	-0.364118	-0.209827	0.516235	-0.483207	-0.306718	0.411224	-0.342471	-0.319168	0.371637	-0.351362	-0.260502	0.359056	-0.351321	-0.251096	0.398496	-0.345035	-0.389503	0.147193	-0.433924	-0.256395	0.057202	-0.360552	-0.200241	0.060028	-0.423548	-0.174192	0.050459	-0.413956	-0.284604	0.851846	-0.731125	-0.268839	0.792897	-0.740934	-0.205554	0.804819	-0.747483	-0.212461	0.864171	-0.738957	-0.267094	0.526799	-0.716045	-0.230781	0.520144	-0.597409	-0.339978	0.395209	-0.728026	-0.351196	0.357035	-0.720211	-0.290126	0.344420	-0.730708	-0.287445	0.387735	-0.737753	-0.410999	0.132171	-0.646929	-0.273413	0.048335	-0.728551	-0.215103	0.057225	-0.671265	-0.192282	0.042971	-0.681933	
377	1.8850	-0.305755	1.553695	-0.550900	-0.246770	1.545856	-0.724655	-0.273989	1.552956	-0.369270	-0.158711	1.500747	-0.548464	-0.177178	1.041549	-0.421409	-0.180423	1.037497	-0.659628	-0.251718	1.117435	-0.376060	-0.247536	1.106054	-0.703811	-0.349399	1.104583	-0.494813	-0.351058	1.107416	-0.583476	-0.349166	1.109015	-0.536436	-0.263723	0.854765	-0.345206	-0.251959	0.796419	-0.339937	-0.187797	0.807662	-0.335184	-0.192393	0.868740	-0.341818	-0.230426	0.528956	-0.364209	-0.209950	0.517783	-0.483379	-0.306805	0.412673	-0.342708	-0.319185	0.373272	-0.351536	-0.260550	0.360590	-0.351414	-0.251169	0.399993	-0.345230	-0.389176	0.148169	-0.434529	-0.256343	0.059608	-0.359260	-0.199625	0.062157	-0.421790	-0.173611	0.052855	-0.411864	-0.284891	0.854160	-0.730818	-0.269261	0.795133	-0.740693	-0.205995	0.806909	-0.747145	-0.212664	0.866173	-0.738606	-0.267678	0.528288	-0.715811	-0.231672	0.521724	-0.597106	-0.340400	0.396564	-0.727808	-0.351600	0.358375	-0.720032	-0.290488	0.345775	-0.730518	-0.287865	0.389130	-0.737553	-0.411136	0.133116	-0.646387	-0.273840	0.050538	-0.729561	-0.215134	0.059232	-0.672851	-0.192345	0.045119	-0.683822	
378	1.8900	-0.305834	1.555038	-0.550795	-0.246960	1.547405	-0.724465	-0.273866	1.554402	-0.369204	-0.158872	1.502044	-0.548408	-0.177179	1.043044	-0.421644	-0.180625	1.039197	-0.659682	-0.251414	1.119385	-0.376025	-0.247625	1.108090	-0.703743	-0.349549	1.106864	-0.494599	-0.351359	1.109831	-0.583237	-0.349275	1.111403	-0.536226	-0.263505	0.856260	-0.345125	-0.251770	0.798165	-0.339419	-0.187697	0.809339	-0.335704	-0.192232	0.870158	-0.342187	-0.230311	0.530093	-0.364290	-0.210171	0.519044	-0.483542	-0.307037	0.413978	-0.342978	-0.319443	0.374661	-0.351847	-0.260722	0.361911	-0.351508	-0.251388	0.401291	-0.345392	-0.388982	0.148939	-0.435048	-0.256244	0.061754	-0.358153	-0.199054	0.064168	-0.420267	-0.173068	0.055094	-0.410071	-0.285006	0.856025	-0.730627	-0.269477	0.796985	-0.740525	-0.206199	0.808633	-0.746801	-0.212700	0.867933	-0.738236	-0.267940	0.529566	-0.715656	-0.232500	0.522990	-0.596856	-0.340883	0.397763	-0.727518	-0.352100	0.359583	-0.719760	-0.291000	0.346919	-0.730288	-0.288364	0.390308	-0.737335	-0.411492	0.133866	-0.645792	-0.274320	0.052827	-0.730569	-0.215283	0.061346	-0.674245	-0.192479	0.047405	-0.685475	
379	1.8950	-0.305917	1.556106	-0.550694	-0.247072	1.548485	-0.724276	-0.273735	1.555485	-0.369080	-0.158995	1.503030	-0.548342	-0.177150	1.044137	-0.421861	-0.180838	1.040568	-0.659762	-0.251241	1.121001	-0.375994	-0.247870	1.109778	-0.703710	-0.349694	1.108882	-0.494448	-0.351711	1.111795	-0.583059	-0.349450	1.113473	-0.536115	-0.263213	0.857497	-0.345007	-0.251391	0.799433	-0.339346	-0.187343	0.810452	-0.336121	-0.191938	0.871661	-0.342832	-0.230627	0.531151	-0.364553	-0.210378	0.520196	-0.483707	-0.307411	0.415130	-0.343274	-0.319868	0.375547	-0.352345	-0.261015	0.363023	-0.351591	-0.251756	0.402409	-0.345520	-0.388918	0.149509	-0.435450	-0.256124	0.063595	-0.357326	-0.198558	0.066004	-0.419105	-0.172584	0.057160	-0.408711	-0.284964	0.857540	-0.730553	-0.269506	0.798501	-0.740405	-0.206222	0.809955	-0.746477	-0.212647	0.869249	-0.737884	-0.268162	0.530469	-0.715575	-0.233428	0.524046	-0.596784	-0.341448	0.398827	-0.727156	-0.352711	0.360669	-0.719404	-0.291668	0.347899	-0.730071	-0.288967	0.391283	-0.737121	-0.412055	0.134456	-0.645191	-0.274935	0.054956	-0.731400	-0.215613	0.063413	-0.675410	-0.192766	0.049667	-0.686848	
380	1.9000	-0.306012	1.557004	-0.550548	-0.247150	1.549428	-0.724182	-0.273548	1.556308	-0.368920	-0.159116	1.503794	-0.548296	-0.177126	1.045170	-0.422097	-0.181098	1.041646	-0.659858	-0.251164	1.122293	-0.376031	-0.248266	1.110981	-0.703714	-0.349870	1.110580	-0.494302	-0.352001	1.113342	-0.582899	-0.349651	1.115185	-0.535959	-0.262677	0.858667	-0.344378	-0.251041	0.800299	-0.339282	-0.187155	0.811359	-0.336854	-0.191506	0.872710	-0.343457	-0.230920	0.531899	-0.364727	-0.210616	0.521005	-0.483798	-0.307907	0.416137	-0.343570	-0.320413	0.376715	-0.352744	-0.261416	0.363928	-0.351654	-0.252243	0.403343	-0.345599	-0.388985	0.149885	-0.435723	-0.255956	0.065112	-0.356750	-0.198134	0.067675	-0.418338	-0.172135	0.059032	-0.407829	-0.284819	0.858613	-0.730571	-0.269372	0.799524	-0.740358	-0.206029	0.810934	-0.746126	-0.212484	0.870232	-0.737583	-0.268389	0.531296	-0.715534	-0.233812	0.524877	-0.596749	-0.342103	0.399757	-0.726739	-0.353436	0.361637	-0.718980	-0.292492	0.348695	-0.729901	-0.289679	0.392090	-0.736932	-0.412808	0.134951	-0.644636	-0.275616	0.056829	-0.731937	-0.216136	0.065287	-0.676248	-0.193241	0.051727	-0.687847	
381	1.9050	-0.306105	1.557579	-0.550412	-0.247186	1.549916	-0.724113	-0.273360	1.556817	-0.368678	-0.159181	1.504277	-0.548218	-0.177042	1.045794	-0.422300	-0.181357	1.042407	-0.659926	-0.251241	1.123083	-0.375920	-0.248696	1.111759	-0.703717	-0.350079	1.111967	-0.494177	-0.352263	1.114559	-0.582745	-0.349877	1.116561	-0.535841	-0.262206	0.859246	-0.344247	-0.250383	0.801035	-0.339163	-0.186489	0.811893	-0.337394	-0.190938	0.873243	-0.343982	-0.231233	0.532615	-0.364811	-0.210960	0.521543	-0.483929	-0.308507	0.416994	-0.343843	-0.321070	0.377906	-0.353719	-0.261905	0.364624	-0.351695	-0.252824	0.404106	-0.345642	-0.389170	0.150053	-0.435852	-0.255737	0.066335	-0.356446	-0.197768	0.069183	-0.417925	-0.171704	0.060714	-0.407401	-0.284539	0.859208	-0.730714	-0.269098	0.800188	-0.740414	-0.205728	0.811563	-0.745765	-0.212154	0.870946	-0.737209	-0.268640	0.531842	-0.715562	-0.233972	0.525491	-0.596852	-0.342842	0.400553	-0.726301	-0.354251	0.362484	-0.718519	-0.293441	0.349362	-0.729774	-0.290491	0.392735	-0.736783	-0.413742	0.135378	-0.644150	-0.276414	0.058338	-0.732181	-0.216862	0.066915	-0.676711	-0.193893	0.053516	-0.688413	
382	1.9100	-0.306194	1.557960	-0.550276	-0.247236	1.550232	-0.724175	-0.273175	1.557025	-0.368402	-0.159252	1.504534	-0.548160	-0.176968	1.046214	-0.422496	-0.181655	1.042875	-0.660015	-0.251472	1.123689	-0.375778	-0.249298	1.112127	-0.703782	-0.350263	1.112889	-0.494067	-0.352595	1.115379	-0.582642	-0.350095	1.117521	-0.535735	-0.261631	0.859614	-0.344083	-0.249775	0.801434	-0.339115	-0.185805	0.812260	-0.338017	-0.190614	0.873704	-0.344787	-0.231548	0.533074	-0.364893	-0.211345	0.521878	-0.484044	-0.309168	0.417649	-0.344115	-0.321675	0.378378	-0.353400	-0.262455	0.365106	-0.351718	-0.253474	0.404692	-0.345665	-0.389456	0.150016	-0.435861	-0.255449	0.067269	-0.356393	-0.197460	0.070527	-0.417872	-0.171275	0.062192	-0.407433	-0.284194	0.859478	-0.730922	-0.268693	0.800477	-0.740507	-0.205203	0.811967	-0.745415	-0.211845	0.871277	-0.736994	-0.268910	0.532239	-0.715624	-0.233931	0.525878	-0.596991	-0.343650	0.401207	-0.725863	-0.355130	0.363188	-0.718051	-0.294471	0.349882	-0.729683	-0.291383	0.393226	-0.736680	-0.414837	0.135742	-0.643732	-0.277337	0.059496	-0.732110	-0.217768	0.068238	-0.676757	-0.194737	0.054996	-0.688508	
383	1.9150	-0.306267	1.558149	-0.550113	-0.247255	1.550222	-0.724278	-0.273005	1.556940	-0.368076	-0.159376	1.504553	-0.548128	-0.176903	1.046474	-0.422649	-0.181920	1.043041	-0.660045	-0.251807	1.123894	-0.375650	-0.249910	1.112064	-0.703789	-0.350462	1.113484	-0.494015	-0.352894	1.115869	-0.582486	-0.350272	1.118060	-0.535599	-0.260966	0.859861	-0.343928	-0.249173	0.801584	-0.339154	-0.185174	0.812384	-0.338686	-0.189977	0.873853	-0.345384	-0.231877	0.533342	-0.364984	-0.211807	0.522007	-0.484152	-0.309863	0.418094	-0.344333	-0.322600	0.379010	-0.354289	-0.263036	0.365370	-0.351730	-0.254170	0.405066	-0.345678	-0.389838	0.149794	-0.435771	-0.255098	0.067919	-0.356559	-0.197213	0.071672	-0.418142	-0.170897	0.063440	-0.407854	-0.283869	0.859411	-0.731178	-0.268080	0.800382	-0.740593	-0.204670	0.812020	-0.745032	-0.211458	0.871344	-0.736723	-0.269155	0.532421	-0.715715	-0.233353	0.526168	-0.597112	-0.344498	0.401706	-0.725463	-0.356056	0.363741	-0.717608	-0.295556	0.350248	-0.729630	-0.292316	0.393559	-0.736618	-0.416084	0.136049	-0.643387	-0.278372	0.060300	-0.731739	-0.218860	0.069272	-0.676393	-0.195763	0.056156	-0.688140	
384	1.9200	-0.306340	1.558086	-0.549968	-0.247261	1.549929	-0.724459	-0.272823	1.556618	-0.367733	-0.159489	1.504359	-0.548106	-0.176849	1.046419	-0.422756	-0.182134	1.042951	-0.660094	-0.252251	1.123747	-0.375524	-0.250614	1.111581	-0.703737	-0.350659	1.113643	-0.493898	-0.353193	1.115871	-0.582383	-0.350453	1.118119	-0.535528	-0.260312	0.859801	-0.343798	-0.248568	0.801590	-0.339182	-0.184517	0.812313	-0.339371	-0.189327	0.873794	-0.346026	-0.232221	0.533378	-0.365066	-0.212316	0.521809	-0.484261	-0.310538	0.418299	-0.344525	-0.323367	0.379271	-0.354464	-0.263618	0.365412	-0.351741	-0.254857	0.405210	-0.345693	-0.390308	0.149415	-0.435596	-0.254706	0.068258	-0.356887	-0.197031	0.072562	-0.418648	-0.170576	0.064370	-0.408607	-0.283516	0.859083	-0.731446	-0.267519	0.800102	-0.740648	-0.204082	0.811816	-0.744645	-0.210991	0.871083	-0.736348	-0.269323	0.532427	-0.715831	-0.233089	0.526172	-0.597323	-0.345338	0.402029	-0.725123	-0.356985	0.364121	-0.717215	-0.296652	0.350417	-0.729594	-0.293242	0.393716	-0.736591	-0.417466	0.136315	-0.643119	-0.279464	0.060812	-0.731125	-0.220125	0.069963	-0.675695	-0.196952	0.056954	-0.687374	
385	1.9250	-0.306421	1.557817	-0.549813	-0.247239	1.549392	-0.724687	-0.272692	1.555994	-0.367363	-0.159614	1.503919	-0.548092	-0.176808	1.046089	-0.422794	-0.182384	1.042564	-0.660154	-0.252785	1.123190	-0.375375	-0.251300	1.110725	-0.703733	-0.350824	1.113415	-0.493804	-0.353383	1.115388	-0.582274	-0.350614	1.117761	-0.535445	-0.259663	0.859557	-0.343639	-0.247965	0.801315	-0.339217	-0.183920	0.812019	-0.340087	-0.188725	0.873440	-0.346605	-0.232537	0.533163	-0.365198	-0.212872	0.521432	-0.484480	-0.311158	0.418241	-0.344667	-0.324080	0.379194	-0.354692	-0.264169	0.365227	-0.351762	-0.255517	0.405115	-0.345728	-0.390846	0.148909	-0.435348	-0.254365	0.068242	-0.357408	-0.196956	0.073072	-0.419380	-0.170354	0.064889	-0.409635	-0.283046	0.858527	-0.731670	-0.266874	0.799555	-0.740844	-0.203483	0.811451	-0.744295	-0.210621	0.870718	-0.736083	-0.269457	0.532264	-0.715937	-0.232837	0.525845	-0.597563	-0.346130	0.402154	-0.724868	-0.357871	0.364304	-0.716894	-0.297679	0.350415	-0.729551	-0.294116	0.393671	-0.736591	-0.418963	0.136507	-0.642893	-0.280683	0.060974	-0.730330	-0.221559	0.070308	-0.674749	-0.198309	0.057347	-0.686325	
